<svg preserveAspectRatio="none" width="100%" height="100%" overflow="visible" style="display: block;" viewBox="0 0 593.263 709.912" fill="none" xmlns="http://www.w3.org/2000/svg">
<g id="Group 36">
<rect id="Rectangle 21" x="66.4154" y="107.694" width="466.677" height="466.677" stroke="var(--stroke-0, #4D453B)" stroke-width="0.634935"/>
<path id="Vector 6" d="M298.484 107.376L296.651 110.551H300.317L298.484 107.376ZM298.484 695.591L300.317 692.416H296.651L298.484 695.591ZM298.484 110.233H298.167V692.734H298.484H298.802V110.233H298.484Z" fill="var(--stroke-0, #4D453B)"/>
<path id="Vector 8" d="M379 126.591L376.164 128.913L379.593 130.208L379 126.591ZM298.187 339.65L298.075 339.947L298.669 340.171L298.781 339.874L298.484 339.762L298.187 339.65ZM377.99 129.264L377.693 129.152L298.187 339.65L298.484 339.762L298.781 339.874L378.287 129.376L377.99 129.264Z" fill="var(--stroke-0, #4D453B)"/>
<path id="Vector 11" d="M219.752 679.115L222.255 676.437L218.684 675.609L219.752 679.115ZM298.793 339.833L298.865 339.524L298.246 339.381L298.174 339.69L298.484 339.762L298.793 339.833ZM220.398 676.332L220.707 676.404L298.793 339.833L298.484 339.762L298.174 339.69L220.089 676.26L220.398 676.332Z" fill="var(--stroke-0, #4D453B)"/>
<path id="Vector 24" d="M170.862 536.89L174.126 535.221L171.049 533.229L170.862 536.89ZM298.751 339.933L298.924 339.667L298.391 339.322L298.218 339.588L298.485 339.761L298.751 339.933ZM172.415 534.491L172.681 534.664L298.751 339.933L298.485 339.761L298.218 339.588L172.148 534.319L172.415 534.491Z" fill="var(--stroke-0, #4D453B)"/>
<path id="Vector 10" d="M334.923 120.672L332.594 123.503L336.21 124.104L334.923 120.672ZM298.172 339.71L298.12 340.023L298.746 340.128L298.798 339.815L298.485 339.762L298.172 339.71ZM334.454 123.49L334.141 123.438L298.172 339.71L298.485 339.762L298.798 339.815L334.767 123.542L334.454 123.49Z" fill="var(--stroke-0, #4D453B)"/>
<path id="Vector 12" d="M223.559 576.73L226.264 574.256L222.769 573.151L223.559 576.73ZM298.787 339.857L298.883 339.555L298.277 339.363L298.182 339.666L298.484 339.762L298.787 339.857ZM224.421 574.006L224.724 574.102L298.787 339.857L298.484 339.762L298.182 339.666L224.118 573.91L224.421 574.006Z" fill="var(--stroke-0, #4D453B)"/>
<path id="Vector 9" d="M393.928 142.485L390.896 144.544L394.196 146.141L393.928 142.485ZM298.198 339.625L298.06 339.911L298.631 340.187L298.77 339.901L298.484 339.763L298.198 339.625ZM392.684 145.057L392.398 144.918L298.198 339.625L298.484 339.763L298.77 339.901L392.97 145.195L392.684 145.057Z" fill="var(--stroke-0, #4D453B)"/>
<path id="Vector 19" d="M34.9861 291.507L37.7787 293.882L38.4391 290.276L34.9861 291.507ZM298.426 340.074L298.738 340.132L298.852 339.507L298.54 339.45L298.483 339.762L298.426 340.074ZM37.7966 292.022L37.7394 292.334L298.426 340.074L298.483 339.762L298.54 339.45L37.8538 291.71L37.7966 292.022Z" fill="var(--stroke-0, #4D453B)"/>
<path id="Vector 20" d="M278.166 528.973L280.328 526.012L276.683 525.621L278.166 528.973ZM298.799 339.796L298.833 339.48L298.201 339.413L298.167 339.728L298.483 339.762L298.799 339.796ZM278.471 526.132L278.787 526.166L298.799 339.796L298.483 339.762L298.167 339.728L278.156 526.098L278.471 526.132Z" fill="var(--stroke-0, #4D453B)"/>
<path id="Vector 21" d="M488.33 537.227L487.451 533.668L484.808 536.209L488.33 537.227ZM298.712 339.542L298.492 339.313L298.034 339.753L298.254 339.982L298.483 339.762L298.712 339.542ZM486.35 535.167L486.579 534.947L298.712 339.542L298.483 339.762L298.254 339.982L486.121 535.387L486.35 535.167Z" fill="var(--stroke-0, #4D453B)"/>
<path id="Vector 13" d="M576.5 438.091L574.119 435.304L572.896 438.76L576.5 438.091ZM298.589 339.463L298.29 339.357L298.078 339.956L298.378 340.062L298.484 339.763L298.589 339.463ZM573.807 437.138L573.913 436.839L298.589 339.463L298.484 339.763L298.378 340.062L573.701 437.437L573.807 437.138Z" fill="var(--stroke-0, #4D453B)"/>
<path id="Vector 22" d="M459.123 363.89L456.256 361.606L455.711 365.231L459.123 363.89ZM298.53 339.449L298.216 339.402L298.122 340.029L298.436 340.077L298.483 339.763L298.53 339.449ZM456.297 363.465L456.345 363.151L298.53 339.449L298.483 339.763L298.436 340.077L456.25 363.779L456.297 363.465Z" fill="var(--stroke-0, #4D453B)"/>
<path id="Vector 23" d="M211.498 293.412L213.438 296.522L215.162 293.287L211.498 293.412ZM298.334 340.043L298.614 340.192L298.913 339.632L298.632 339.482L298.483 339.763L298.334 340.043ZM214.02 294.756L213.87 295.036L298.334 340.043L298.483 339.763L298.632 339.482L214.169 294.475L214.02 294.756Z" fill="var(--stroke-0, #4D453B)"/>
<path id="Vector 14" d="M243.883 229.916L243.646 233.574L246.933 231.95L243.883 229.916ZM397.873 595.382C398.033 595.452 398.221 595.379 398.291 595.218L399.437 592.601C399.508 592.441 399.435 592.253 399.274 592.183C399.113 592.113 398.926 592.186 398.856 592.346L397.837 594.673L395.51 593.653C395.35 593.583 395.163 593.656 395.092 593.817C395.022 593.977 395.095 594.165 395.256 594.235L397.873 595.382ZM298.488 340.396L298.784 340.28L298.779 340.268L298.773 340.255L298.488 340.396ZM245.149 232.478L244.864 232.618L298.204 340.537L298.488 340.396L298.773 340.255L245.433 232.337L245.149 232.478ZM298.488 340.396L298.192 340.512L397.704 595.206L398 595.091L398.296 594.975L298.784 340.28L298.488 340.396Z" fill="var(--stroke-0, #4D453B)"/>
<path id="Vector 25" d="M243.883 229.917L243.646 233.575L246.932 231.95L243.883 229.917ZM576.957 708.905C577.13 708.929 577.291 708.808 577.315 708.634L577.707 705.804C577.731 705.631 577.61 705.47 577.436 705.446C577.263 705.422 577.103 705.543 577.078 705.717L576.73 708.233L574.214 707.884C574.04 707.86 573.88 707.981 573.856 708.155C573.832 708.328 573.953 708.489 574.127 708.513L576.957 708.905ZM298.488 340.396L298.203 340.537L298.217 340.564L298.235 340.588L298.488 340.396ZM245.149 232.478L244.864 232.619L298.203 340.537L298.488 340.396L298.773 340.256L245.433 232.337L245.149 232.478ZM298.488 340.396L298.235 340.588L576.747 708.782L577 708.591L577.254 708.399L298.741 340.205L298.488 340.396Z" fill="var(--stroke-0, #4D453B)"/>
<path id="Vector 15" d="M160.068 131.802L160.296 135.461L163.351 133.434L160.068 131.802ZM298.221 340.572L298.396 340.837L298.925 340.486L298.75 340.221L298.485 340.397L298.221 340.572ZM161.648 134.183L161.384 134.358L298.221 340.572L298.485 340.397L298.75 340.221L161.913 134.007L161.648 134.183Z" fill="var(--stroke-0, #4D453B)"/>
<path id="Vector 16" d="M0 40.5908L0.940968 44.1338L3.53879 41.5474L0 40.5908ZM298.894 341.256L299.118 341.481L299.568 341.033L299.344 340.808L299.119 341.032L298.894 341.256ZM2.01589 42.6156L1.79091 42.8396L298.894 341.256L299.119 341.032L299.344 340.808L2.24087 42.3916L2.01589 42.6156Z" fill="var(--stroke-0, #4D453B)"/>
<path id="Vector 7" d="M66.098 339.445H65.7805V340.08H66.098V339.762V339.445ZM530.871 339.762V339.445H66.098V339.762V340.08H530.871V339.762Z" fill="var(--stroke-0, #4D453B)"/>
<path id="Vector 17" d="M578.891 63.6662C578.892 63.4909 578.751 63.3479 578.575 63.3469L575.718 63.33C575.543 63.329 575.4 63.4703 575.399 63.6456C575.398 63.821 575.539 63.9639 575.714 63.965L578.254 63.9799L578.239 66.5196C578.238 66.695 578.379 66.8379 578.555 66.839C578.73 66.84 578.873 66.6987 578.874 66.5234L578.891 63.6662ZM10.9999 624.591L14.5463 623.663L11.9696 621.056L10.9999 624.591ZM578.573 63.6643L578.35 63.4385L12.809 622.357L13.0322 622.582L13.2553 622.808L578.797 63.8901L578.573 63.6643Z" fill="var(--stroke-0, #4D453B)"/>
<path id="Vector 18" d="M556.5 223.091L552.857 222.687L554.329 226.044L556.5 223.091ZM3.49989 465.591L7.14337 465.995L5.67124 462.638L3.49989 465.591ZM553.883 224.238L553.756 223.948L5.98905 464.153L6.11657 464.444L6.24403 464.734L554.011 224.529L553.883 224.238Z" fill="var(--stroke-0, #4D453B)"/>
<circle id="Ellipse 6" cx="298.484" cy="339.762" r="4.76201" fill="var(--fill-0, #FFEDD7)" stroke="var(--stroke-0, #4D453B)" stroke-width="0.634935"/>
</g>
</svg>
