<svg width="120" height="120" viewBox="0 0 120 120" fill="none" xmlns="http://www.w3.org/2000/svg">
<g clip-path="url(#clip0_301_887)">
<path d="M120 0H0V120H120V0Z" fill="#FB8349"/>
<path d="M106 11H14C12.3431 11 11 12.3431 11 14V106C11 107.657 12.3431 109 14 109H106C107.657 109 109 107.657 109 106V14C109 12.3431 107.657 11 106 11Z" stroke="black" stroke-width="2"/>
<path d="M49.5549 72.6951V70.8682C54.2833 70.8682 54.8206 70.51 54.8206 67.8951V60.9458H35.1549V67.8951C35.1549 70.51 35.7281 70.8682 40.4206 70.8682V72.6951H26.0564V70.8682C30.749 70.8682 31.2863 70.51 31.2863 67.8951V52.2413C31.2863 49.6264 30.749 49.2682 26.0564 49.2682V47.4413H40.4206V49.2682C35.7281 49.2682 35.1549 49.6264 35.1549 52.2413V58.4384H54.8206V52.2413C54.8206 49.6264 54.2833 49.2682 49.5549 49.2682V47.4413H63.9191V49.2682C59.2266 49.2682 58.6893 49.6264 58.6893 52.2413V67.8951C58.6893 70.51 59.2266 70.8682 63.9191 70.8682V72.6951H49.5549ZM79.7575 73.2682C74.3128 73.2682 70.7665 72.1578 68.0083 70.4742L66.862 64.7428H68.9755C70.5874 68.9697 74.1337 70.7607 80.3665 70.7607C86.4202 70.7607 89.465 69.2204 89.465 66.0324C89.465 63.8115 88.1396 62.5936 84.5575 61.9846L75.9605 60.8025C70.9814 60.0145 68.4023 58.2234 68.4023 54.5697C68.4023 49.6264 73.3814 46.8324 81.6919 46.8324C86.9575 46.8324 90.5038 48.0503 92.7605 49.3757V54.2473H90.6471C90.1814 51.0592 87.6381 49.2682 81.0471 49.2682C75.065 49.2682 72.4859 50.9876 72.4859 53.7816C72.4859 55.8951 73.668 57.0772 77.5008 57.7219L86.062 58.904C91.2919 59.7995 93.6202 61.6622 93.6202 65.2801C93.6202 70.6891 87.9605 73.2682 79.7575 73.2682Z" fill="black"/>
</g>
<defs>
<clipPath id="clip0_301_887">
<rect width="120" height="120" fill="white"/>
</clipPath>
</defs>
</svg>
