<svg width="120" height="120" viewBox="0 0 120 120" fill="none" xmlns="http://www.w3.org/2000/svg">
<rect width="120" height="120" fill="#FB8349"/>
<rect x="11" y="11" width="98" height="98" rx="3" stroke="black" stroke-width="2"/>
<path d="M23.512 54.462L24.604 45.39H57.91L59.002 54.462H56.524C55.642 49.212 54.13 48.204 49.51 48.204H43.546V69.372C43.546 72.438 44.218 72.858 50.308 72.858V75H32.206V72.858C38.296 72.858 39.01 72.438 39.01 69.372V48.204H33.046C28.384 48.204 26.914 49.17 26.032 54.462H23.512ZM61.6057 75V72.858C67.1077 72.858 67.7377 72.438 67.7377 69.372V51.018C67.7377 47.952 67.1077 47.532 61.6057 47.532V45.39H84.7897C92.2657 45.39 96.4237 48.33 96.4237 53.916C96.4237 59.544 92.0977 63.072 83.4877 63.072H75.6337V60.468H83.0257C88.7797 60.468 91.5097 58.074 91.5097 54.084C91.5097 50.304 88.9477 48.162 83.9077 48.162H72.2737V69.372C72.2737 72.438 73.1557 72.858 80.8837 72.858V75H61.6057Z" fill="black"/>
</svg>
