<svg width="1351" height="126" viewBox="0 0 1351 126" fill="none" xmlns="http://www.w3.org/2000/svg">
<path d="M82.6563 100.926V94.5C99.2883 94.5 101.178 93.24 101.178 84.042V59.598H32.0043V84.042C32.0043 93.24 34.0203 94.5 50.5263 94.5V100.926H0.000336155V94.5C16.5063 94.5 18.3963 93.24 18.3963 84.042V28.98C18.3963 19.782 16.5063 18.522 0.000336155 18.522V12.096H50.5263V18.522C34.0203 18.522 32.0043 19.782 32.0043 28.98V50.778H101.178V28.98C101.178 19.782 99.2883 18.522 82.6563 18.522V12.096H133.182V18.522C116.676 18.522 114.786 19.782 114.786 28.98V84.042C114.786 93.24 116.676 94.5 133.182 94.5V100.926H82.6563ZM142.01 100.926V94.878C153.854 94.878 156.752 94.122 156.752 84.924V48.258L142.01 44.478V41.076L169.478 31.878V84.924C169.478 94.122 172.376 94.878 184.22 94.878V100.926H142.01ZM162.674 20.538C157.508 20.538 153.854 17.262 153.854 12.348C153.854 7.43402 157.508 4.03202 162.674 4.03202C167.84 4.03202 171.746 7.43402 171.746 12.348C171.746 17.262 167.84 20.538 162.674 20.538ZM229.881 125.748C202.287 125.748 188.679 119.952 188.679 108.864C188.679 102.186 195.609 97.02 208.713 94.626C203.673 93.114 200.901 90.342 200.901 86.562C200.901 81.9 204.555 78.498 214.005 75.978C202.161 72.702 195.735 65.772 195.735 55.944C195.735 42.21 208.461 33.894 231.141 33.894C237.189 33.894 242.607 34.524 247.143 35.658L279.273 32.256V44.226C272.973 42.84 264.027 40.824 256.341 39.312C262.767 43.092 266.169 48.762 266.169 55.944C266.169 69.678 253.443 77.994 230.889 77.994C226.101 77.994 221.943 77.616 218.037 76.86C214.509 78.624 213.123 80.262 213.123 82.278C213.123 84.672 215.391 85.806 221.313 86.058L259.869 87.696C272.343 88.326 278.769 93.114 278.769 101.808C278.769 116.424 260.121 125.748 229.881 125.748ZM231.015 70.812C246.765 70.812 253.821 65.898 253.821 55.944C253.821 46.116 246.765 41.202 231.015 41.202C215.391 41.202 208.335 46.116 208.335 55.944C208.335 65.898 215.391 70.812 231.015 70.812ZM201.405 106.47C201.405 114.156 210.603 117.684 233.535 117.684C254.577 117.684 266.925 112.77 266.925 104.706C266.925 100.044 263.775 98.028 256.215 97.65L218.541 96.138C216.147 96.012 214.131 95.76 212.367 95.508C205.059 98.28 201.405 101.934 201.405 106.47ZM288.072 100.926V94.878C299.916 94.878 302.814 94.122 302.814 84.924V16.002L288.072 12.222V8.69402L315.54 1.80006e-05V46.368C323.352 38.682 334.566 33.894 348.678 33.894C366.57 33.894 378.162 41.58 378.162 58.59V84.924C378.162 94.122 381.06 94.878 392.778 94.878V100.926H350.82V94.878C362.538 94.878 365.31 94.122 365.31 84.924V61.74C365.31 48.258 356.112 43.848 341.622 43.848C331.29 43.848 321.966 46.368 315.54 49.896V84.924C315.54 94.122 318.438 94.878 330.03 94.878V100.926H288.072ZM443.866 102.942C415.642 102.942 400.9 90.594 400.9 69.048C400.9 46.872 416.398 33.894 443.488 33.894C472.594 33.894 484.186 47.502 484.438 70.182H414.004C414.886 86.562 426.982 93.24 446.512 93.24C460.372 93.24 471.712 90.342 481.036 84.294V91.35C473.476 98.28 460.876 102.942 443.866 102.942ZM414.13 63H470.83C469.444 46.746 459.238 41.706 443.488 41.706C427.234 41.706 416.02 47.88 414.13 63ZM493.688 100.926V94.878C505.532 94.878 508.43 94.122 508.43 84.924V48.258L493.688 44.478V41.076L521.156 31.878V49.77C526.322 40.32 534.008 33.894 543.71 33.894C547.49 33.894 551.27 35.028 552.908 36.666V47.502C550.892 46.998 546.986 46.368 542.198 46.368C532.244 46.368 525.566 50.022 521.156 54.432V84.924C521.156 94.122 525.188 94.878 541.946 94.878V100.926H493.688ZM649.227 102.942C630.075 102.942 617.601 99.036 607.899 93.114L603.867 72.954H611.301C616.971 87.822 629.445 94.122 651.369 94.122C672.663 94.122 683.373 88.704 683.373 77.49C683.373 69.678 678.711 65.394 666.111 63.252L635.871 59.094C618.357 56.322 609.285 50.022 609.285 37.17C609.285 19.782 626.799 9.95402 656.031 9.95402C674.553 9.95402 687.027 14.238 694.965 18.9V36.036H687.531C685.893 24.822 676.947 18.522 653.763 18.522C632.721 18.522 623.649 24.57 623.649 34.398C623.649 41.832 627.807 45.99 641.289 48.258L671.403 52.416C689.799 55.566 697.989 62.118 697.989 74.844C697.989 93.87 678.081 102.942 649.227 102.942ZM740.991 102.942C729.777 102.942 722.595 97.65 722.595 85.554V44.982H708.483V41.454L732.297 21.294H735.447V36.036H761.655V44.982H735.447V81.018C735.447 90.342 739.857 93.114 746.913 93.114C751.953 93.114 757.245 91.728 762.411 88.578V95.13C756.111 100.548 748.803 102.942 740.991 102.942ZM847.252 102.942C839.188 102.942 835.03 98.91 834.652 90.846V90.72C826.84 98.154 816.508 102.942 801.136 102.942C783.748 102.942 773.29 96.138 773.29 84.546C773.29 76.104 778.708 70.182 793.576 67.284L834.652 60.228V55.818C834.652 46.62 831.502 41.832 817.138 41.832C804.664 41.832 796.474 46.62 794.458 53.802H773.92C786.52 41.958 803.782 33.894 822.304 33.894C841.834 33.894 847.378 40.698 847.378 52.668V86.688C847.378 91.602 849.646 93.492 854.56 93.492C857.584 93.492 860.23 92.862 863.002 91.224V96.642C858.844 100.674 853.3 102.942 847.252 102.942ZM786.772 83.538C786.772 90.72 794.458 94.122 806.68 94.122C817.894 94.122 827.344 91.35 834.652 86.688V67.284L798.616 73.458C790.174 75.222 786.772 78.246 786.772 83.538ZM867.824 100.926V94.878C879.668 94.878 882.566 94.122 882.566 84.924V48.258L867.824 44.478V41.076L895.292 31.878V46.368C903.104 38.682 914.318 33.894 928.43 33.894C946.322 33.894 957.914 41.58 957.914 58.59V84.924C957.914 94.122 960.812 94.878 972.53 94.878V100.926H930.572V94.878C942.29 94.878 945.062 94.122 945.062 84.924V61.74C945.062 48.258 935.864 43.848 921.374 43.848C911.042 43.848 901.718 46.368 895.292 49.896V84.924C895.292 94.122 898.19 94.878 909.908 94.878V100.926H867.824ZM1019.45 102.942C994.633 102.942 980.899 91.602 980.899 70.308C980.899 46.872 997.153 33.894 1025.88 33.894C1035.71 33.894 1045.28 35.658 1053.1 39.942V16.002L1038.48 12.222V8.69402L1065.95 1.80006e-05V88.452L1080.56 91.854V95.382L1053.1 103.572V90.72C1045.54 98.028 1033.06 102.942 1019.45 102.942ZM994.003 68.418C994.003 85.428 1004.59 93.24 1025.88 93.24C1036.84 93.24 1046.67 90.594 1053.1 86.94V58.842C1053.1 48.258 1043.65 42.714 1026.38 42.714C1004.71 42.714 994.003 51.282 994.003 68.418ZM1163.31 102.942C1155.24 102.942 1151.08 98.91 1150.71 90.846V90.72C1142.89 98.154 1132.56 102.942 1117.19 102.942C1099.8 102.942 1089.34 96.138 1089.34 84.546C1089.34 76.104 1094.76 70.182 1109.63 67.284L1150.71 60.228V55.818C1150.71 46.62 1147.56 41.832 1133.19 41.832C1120.72 41.832 1112.53 46.62 1110.51 53.802H1089.97C1102.57 41.958 1119.84 33.894 1138.36 33.894C1157.89 33.894 1163.43 40.698 1163.43 52.668V86.688C1163.43 91.602 1165.7 93.492 1170.61 93.492C1173.64 93.492 1176.28 92.862 1179.06 91.224V96.642C1174.9 100.674 1169.35 102.942 1163.31 102.942ZM1102.83 83.538C1102.83 90.72 1110.51 94.122 1122.73 94.122C1133.95 94.122 1143.4 91.35 1150.71 86.688V67.284L1114.67 73.458C1106.23 75.222 1102.83 78.246 1102.83 83.538ZM1184 100.926V94.878C1195.84 94.878 1198.74 94.122 1198.74 84.924V48.258L1184 44.478V41.076L1211.47 31.878V49.77C1216.63 40.32 1224.32 33.894 1234.02 33.894C1237.8 33.894 1241.58 35.028 1243.22 36.666V47.502C1241.2 46.998 1237.3 46.368 1232.51 46.368C1222.56 46.368 1215.88 50.022 1211.47 54.432V84.924C1211.47 94.122 1215.5 94.878 1232.26 94.878V100.926H1184ZM1289.37 102.942C1264.54 102.942 1250.81 91.602 1250.81 70.308C1250.81 46.872 1267.06 33.894 1295.79 33.894C1305.62 33.894 1315.2 35.658 1323.01 39.942V16.002L1308.39 12.222V8.69402L1335.86 1.80006e-05V88.452L1350.48 91.854V95.382L1323.01 103.572V90.72C1315.45 98.028 1302.97 102.942 1289.37 102.942ZM1263.91 68.418C1263.91 85.428 1274.5 93.24 1295.79 93.24C1306.75 93.24 1316.58 90.594 1323.01 86.94V58.842C1323.01 48.258 1313.56 42.714 1296.3 42.714C1274.62 42.714 1263.91 51.282 1263.91 68.418Z" fill="#EAEAE5"/>
</svg>
