<svg width="389" height="67" viewBox="0 0 389 67" fill="none" xmlns="http://www.w3.org/2000/svg">
<rect width="388.738" height="66.119" fill="white"/>
<path d="M14.3086 7.42334H374.431C378.233 7.42334 381.314 10.5053 381.314 14.3071V51.811C381.314 55.613 378.233 58.6948 374.431 58.6948H14.3096C10.5069 58.6948 7.42393 55.6127 7.42383 51.8101V14.3081C7.42405 10.5058 10.5063 7.42356 14.3086 7.42334Z" stroke="black" stroke-width="1.25186"/>
<path d="M41.0436 44.5591V42.8991C45.3399 42.8991 45.8282 42.5736 45.8282 40.1976V33.8832H27.9591V40.1976C27.9591 42.5736 28.4799 42.8991 32.7437 42.8991V44.5591H19.6918V42.8991C23.9557 42.8991 24.4439 42.5736 24.4439 40.1976V25.974C24.4439 23.598 23.9557 23.2725 19.6918 23.2725V21.6125H32.7437V23.2725C28.4799 23.2725 27.9591 23.598 27.9591 25.974V31.6048H45.8282V25.974C45.8282 23.598 45.3399 23.2725 41.0436 23.2725V21.6125H54.0954V23.2725C49.8316 23.2725 49.3434 23.598 49.3434 25.974V40.1976C49.3434 42.5736 49.8316 42.8991 54.0954 42.8991V44.5591H41.0436ZM56.3759 44.5591V42.9968C59.4354 42.9968 60.184 42.8015 60.184 40.4254V30.9539L56.3759 29.9774V29.0986L63.4714 26.7226V40.4254C63.4714 42.8015 64.22 42.9968 67.2795 42.9968V44.5591H56.3759ZM61.7138 23.7932C60.3793 23.7932 59.4354 22.947 59.4354 21.6776C59.4354 20.4082 60.3793 19.5294 61.7138 19.5294C63.0483 19.5294 64.0573 20.4082 64.0573 21.6776C64.0573 22.947 63.0483 23.7932 61.7138 23.7932ZM79.0748 50.9711C71.9467 50.9711 68.4315 49.4739 68.4315 46.6096C68.4315 44.8846 70.2216 43.5501 73.6066 42.9317C72.3047 42.5411 71.5886 41.825 71.5886 40.8486C71.5886 39.6443 72.5325 38.7655 74.9737 38.1145C71.9141 37.2683 70.2542 35.4781 70.2542 32.9393C70.2542 29.3916 73.5415 27.2434 79.4002 27.2434C80.9626 27.2434 82.3621 27.4061 83.5339 27.699L91.8337 26.8202V29.9123C90.2063 29.5543 87.8954 29.0335 85.9099 28.6429C87.5699 29.6194 88.4487 31.0841 88.4487 32.9393C88.4487 36.4871 85.1613 38.6353 79.3351 38.6353C78.0983 38.6353 77.0242 38.5376 76.0152 38.3424C75.1039 38.798 74.7458 39.2212 74.7458 39.7419C74.7458 40.3603 75.3317 40.6533 76.8615 40.7184L86.8213 41.1415C90.0435 41.3042 91.7035 42.5411 91.7035 44.7869C91.7035 48.5625 86.8864 50.9711 79.0748 50.9711ZM79.3677 36.78C83.4362 36.78 85.2589 35.5106 85.2589 32.9393C85.2589 30.4006 83.4362 29.1312 79.3677 29.1312C75.3317 29.1312 73.509 30.4006 73.509 32.9393C73.509 35.5106 75.3317 36.78 79.3677 36.78ZM71.7188 45.9912C71.7188 47.9767 74.0949 48.888 80.0187 48.888C85.4542 48.888 88.644 47.6186 88.644 45.5355C88.644 44.3312 87.8303 43.8105 85.8774 43.7128L76.1454 43.3222C75.527 43.2897 75.0062 43.2246 74.5505 43.1595C72.6627 43.8756 71.7188 44.8195 71.7188 45.9912ZM94.1065 44.5591V42.9968C97.166 42.9968 97.9146 42.8015 97.9146 40.4254V22.6215L94.1065 21.6451V20.7337L101.202 18.4879V30.4657C103.22 28.4802 106.117 27.2434 109.762 27.2434C114.384 27.2434 117.379 29.2288 117.379 33.6228V40.4254C117.379 42.8015 118.127 42.9968 121.154 42.9968V44.5591H110.316V42.9968C113.343 42.9968 114.059 42.8015 114.059 40.4254V34.4366C114.059 30.9539 111.683 29.8147 107.94 29.8147C105.271 29.8147 102.862 30.4657 101.202 31.377V40.4254C101.202 42.8015 101.951 42.9968 104.945 42.9968V44.5591H94.1065ZM134.351 45.0799C127.06 45.0799 123.252 41.8901 123.252 36.3244C123.252 30.5958 127.256 27.2434 134.254 27.2434C141.772 27.2434 144.767 30.7586 144.832 36.6173H126.637C126.865 40.8486 129.99 42.5736 135.035 42.5736C138.615 42.5736 141.544 41.825 143.953 40.2627V42.0854C142 43.8756 138.745 45.0799 134.351 45.0799ZM126.67 34.762H141.317C140.959 30.5633 138.322 29.2614 134.254 29.2614C130.055 29.2614 127.158 30.8562 126.67 34.762ZM147.221 44.5591V42.9968C150.281 42.9968 151.029 42.8015 151.029 40.4254V30.9539L147.221 29.9774V29.0986L154.317 26.7226V31.3445C155.651 28.9033 157.637 27.2434 160.143 27.2434C161.119 27.2434 162.096 27.5363 162.519 27.9594V30.7586C161.998 30.6284 160.989 30.4657 159.752 30.4657C157.181 30.4657 155.456 31.4096 154.317 32.5487V40.4254C154.317 42.8015 155.358 42.9968 159.687 42.9968V44.5591H147.221ZM187.4 45.0799C182.453 45.0799 179.231 44.0709 176.724 42.5411L175.683 37.3334H177.603C179.068 41.1741 182.29 42.8015 187.954 42.8015C193.454 42.8015 196.221 41.4019 196.221 38.5051C196.221 36.4871 195.016 35.3805 191.762 34.8271L183.95 33.753C179.426 33.037 177.082 31.4096 177.082 28.0896C177.082 23.598 181.607 21.0592 189.158 21.0592C193.942 21.0592 197.165 22.1658 199.215 23.3701V27.7967H197.295C196.872 24.8999 194.561 23.2725 188.572 23.2725C183.136 23.2725 180.793 24.8348 180.793 27.3736C180.793 29.2939 181.867 30.368 185.35 30.9539L193.129 32.028C197.881 32.8417 199.996 34.5342 199.996 37.8216C199.996 42.7364 194.854 45.0799 187.4 45.0799ZM211.105 45.0799C208.208 45.0799 206.352 43.7128 206.352 40.5882V30.1076H202.707V29.1963L208.859 23.9885H209.672V27.7967H216.442V30.1076H209.672V39.4164C209.672 41.825 210.812 42.5411 212.634 42.5411C213.936 42.5411 215.303 42.1831 216.638 41.3693V43.0619C215.01 44.4614 213.123 45.0799 211.105 45.0799ZM238.554 45.0799C236.471 45.0799 235.397 44.0383 235.299 41.9552V41.9227C233.281 43.843 230.612 45.0799 226.641 45.0799C222.15 45.0799 219.448 43.3222 219.448 40.3278C219.448 38.1471 220.848 36.6173 224.688 35.8687L235.299 34.046V32.9068C235.299 30.5308 234.485 29.2939 230.775 29.2939C227.553 29.2939 225.437 30.5308 224.916 32.386H219.611C222.866 29.3265 227.325 27.2434 232.109 27.2434C237.154 27.2434 238.586 29.001 238.586 32.0931V40.8811C238.586 42.1505 239.172 42.6387 240.442 42.6387C241.223 42.6387 241.906 42.476 242.622 42.0529V43.4524C241.548 44.494 240.116 45.0799 238.554 45.0799ZM222.931 40.0674C222.931 41.9227 224.916 42.8015 228.073 42.8015C230.97 42.8015 233.411 42.0854 235.299 40.8811V35.8687L225.99 37.4635C223.81 37.9192 222.931 38.7004 222.931 40.0674ZM243.868 44.5591V42.9968C246.928 42.9968 247.676 42.8015 247.676 40.4254V30.9539L243.868 29.9774V29.0986L250.964 26.7226V30.4657C252.982 28.4802 255.879 27.2434 259.524 27.2434C264.146 27.2434 267.14 29.2288 267.14 33.6228V40.4254C267.14 42.8015 267.889 42.9968 270.916 42.9968V44.5591H260.077V42.9968C263.104 42.9968 263.82 42.8015 263.82 40.4254V34.4366C263.82 30.9539 261.444 29.8147 257.701 29.8147C255.032 29.8147 252.624 30.4657 250.964 31.377V40.4254C250.964 42.8015 251.712 42.9968 254.739 42.9968V44.5591H243.868ZM283.037 45.0799C276.625 45.0799 273.078 42.1505 273.078 36.6498C273.078 30.5958 277.276 27.2434 284.697 27.2434C287.236 27.2434 289.71 27.699 291.728 28.8057V22.6215L287.952 21.6451V20.7337L295.048 18.4879V41.3368L298.823 42.2156V43.127L291.728 45.2426V41.9227C289.775 43.8105 286.553 45.0799 283.037 45.0799ZM276.463 36.1616C276.463 40.5556 279.197 42.5736 284.697 42.5736C287.529 42.5736 290.068 41.8901 291.728 40.9462V33.6879C291.728 30.9539 289.287 29.5218 284.828 29.5218C279.229 29.5218 276.463 31.735 276.463 36.1616ZM320.197 45.0799C318.114 45.0799 317.04 44.0383 316.942 41.9552V41.9227C314.924 43.843 312.255 45.0799 308.284 45.0799C303.793 45.0799 301.091 43.3222 301.091 40.3278C301.091 38.1471 302.491 36.6173 306.331 35.8687L316.942 34.046V32.9068C316.942 30.5308 316.128 29.2939 312.418 29.2939C309.196 29.2939 307.08 30.5308 306.559 32.386H301.254C304.509 29.3265 308.968 27.2434 313.752 27.2434C318.797 27.2434 320.229 29.001 320.229 32.0931V40.8811C320.229 42.1505 320.815 42.6387 322.085 42.6387C322.866 42.6387 323.549 42.476 324.265 42.0529V43.4524C323.191 44.494 321.759 45.0799 320.197 45.0799ZM304.574 40.0674C304.574 41.9227 306.559 42.8015 309.716 42.8015C312.613 42.8015 315.054 42.0854 316.942 40.8811V35.8687L307.633 37.4635C305.452 37.9192 304.574 38.7004 304.574 40.0674ZM325.543 44.5591V42.9968C328.602 42.9968 329.351 42.8015 329.351 40.4254V30.9539L325.543 29.9774V29.0986L332.638 26.7226V31.3445C333.973 28.9033 335.958 27.2434 338.465 27.2434C339.441 27.2434 340.418 27.5363 340.841 27.9594V30.7586C340.32 30.6284 339.311 30.4657 338.074 30.4657C335.503 30.4657 333.778 31.4096 332.638 32.5487V40.4254C332.638 42.8015 333.68 42.9968 338.009 42.9968V44.5591H325.543ZM352.761 45.0799C346.349 45.0799 342.801 42.1505 342.801 36.6498C342.801 30.5958 347 27.2434 354.421 27.2434C356.959 27.2434 359.433 27.699 361.451 28.8057V22.6215L357.676 21.6451V20.7337L364.771 18.4879V41.3368L368.547 42.2156V43.127L361.451 45.2426V41.9227C359.498 43.8105 356.276 45.0799 352.761 45.0799ZM346.186 36.1616C346.186 40.5556 348.92 42.5736 354.421 42.5736C357.252 42.5736 359.791 41.8901 361.451 40.9462V33.6879C361.451 30.9539 359.01 29.5218 354.551 29.5218C348.953 29.5218 346.186 31.735 346.186 36.1616Z" fill="black"/>
</svg>
