<svg preserveAspectRatio="none" width="100%" height="100%" overflow="visible" style="display: block;" viewBox="0 0 740 485.345" fill="none" xmlns="http://www.w3.org/2000/svg">
<path id="Vector 36" d="M359.227 485L359.16 485.33L359.235 485.345L359.31 485.326L359.227 485ZM0 0L0.441853 3.8623L3.56578 1.54849L0 0ZM34.0036 182.604L35.1456 186.32L37.7928 183.473L34.0036 182.604ZM8.08007 309.574L10.2231 312.818L11.9605 309.34L8.08007 309.574ZM185.842 0L185.145 3.8245L188.805 2.51585L185.842 0ZM411.41 0L409.118 3.13941L412.983 3.55529L411.41 0ZM319.5 173.631L317.997 177.217L321.854 176.725L319.5 173.631ZM504.331 21.087L501.471 23.7199L505.181 24.8804L504.331 21.087ZM550.792 139.084L547.46 141.088L550.861 142.971L550.792 139.084ZM740 163.312L736.174 164L738.683 166.969L740 163.312ZM709.363 37.6873L705.757 39.1403L708.818 41.5365L709.363 37.6873ZM740 249.454L736.114 249.572L738.159 252.878L740 249.454ZM740 388.09L736.258 387.036L737.217 390.804L740 388.09ZM89.5541 430.264L92.4669 432.838L93.2402 429.028L89.5541 430.264ZM359.227 485L359.497 484.8L2.07397 2.23448L1.80343 2.43486L1.53289 2.63524L358.956 485.2L359.227 485ZM359.227 485L359.456 484.753L36.4519 184.421L36.2226 184.667L35.9934 184.914L358.997 485.247L359.227 485ZM359.227 485L359.377 484.699L10.9411 310.627L10.7906 310.929L10.6402 311.23L359.076 485.301L359.227 485ZM359.227 485L359.544 484.887L187.179 2.73983L186.862 2.85316L186.545 2.96649L358.91 485.113L359.227 485ZM359.227 485L359.561 485.036L411.421 3.04863L411.086 3.01261L410.751 2.9766L358.892 484.964L359.227 485ZM359.227 485L359.56 484.957L320.217 176.594L319.883 176.637L319.549 176.679L358.893 485.043L359.227 485ZM359.227 485L359.548 485.101L503.748 24.0793L503.427 23.9788L503.105 23.8783L358.905 484.9L359.227 485ZM359.227 485L359.521 485.163L549.618 141.898L549.324 141.735L549.029 141.572L358.932 484.837L359.227 485ZM359.227 485L359.444 485.257L737.903 165.524L737.685 165.267L737.468 165.01L359.009 484.743L359.227 485ZM359.227 485L359.492 485.208L707.76 40.2808L707.495 40.0733L707.23 39.8658L358.961 484.793L359.227 485ZM359.227 485L359.404 485.286L737.6 251.335L737.423 251.048L737.246 250.762L359.049 484.714L359.227 485ZM359.227 485L359.31 485.326L737.147 389.163L737.064 388.837L736.981 388.511L359.143 484.674L359.227 485ZM359.227 485L359.294 484.67L92.5906 430.536L92.5236 430.866L92.4566 431.196L359.16 485.33L359.227 485Z" fill="var(--stroke-0, black)"/>
</svg>
