<svg width="1366" height="110" viewBox="0 0 1366 110" fill="none" xmlns="http://www.w3.org/2000/svg">
<path d="M-0.000115909 38.8425L3.60668 8.87833H113.614L117.221 38.8425H109.036C106.123 21.5021 101.129 18.1728 85.8694 18.1728H66.1707V88.0891C66.1707 98.2159 68.3903 99.6031 88.5051 99.6031V106.678H28.7155V99.6031C48.8303 99.6031 51.1886 98.2159 51.1886 88.0891V18.1728H31.49C16.0917 18.1728 11.2364 21.3634 8.32326 38.8425H-0.000115909ZM127.208 106.678V99.6031C145.38 99.6031 147.461 98.2159 147.461 88.0891V27.4672C147.461 17.3404 145.38 15.9532 127.208 15.9532V8.87833H203.783C228.475 8.87833 242.209 18.5889 242.209 37.0391C242.209 55.6279 227.921 67.2807 199.482 67.2807H173.541V58.6799H197.956C216.961 58.6799 225.978 50.7726 225.978 37.594C225.978 25.1089 217.516 18.034 200.87 18.034H162.443V88.0891C162.443 98.2159 165.357 99.6031 190.882 99.6031V106.678H127.208ZM251.506 106.678V99.6031C269.678 99.6031 271.759 98.2159 271.759 88.0891V27.4672C271.759 17.3404 269.678 15.9532 251.506 15.9532V8.87833H329.884C353.328 8.87833 366.507 18.3115 366.507 34.5421C366.507 50.6339 353.189 61.1769 330.023 62.4254L325.445 62.9803L357.629 88.0891C368.449 96.2738 373.998 99.1869 380.379 99.1869V106.678H358.877C352.912 102.655 348.473 99.1869 343.756 94.8865L307.966 64.2288H286.741V88.0891C286.741 98.2159 288.822 99.6031 306.579 99.6031V106.678H251.506ZM286.741 55.6279H322.948C340.704 55.6279 350.138 48.6918 350.138 35.7906C350.138 24.2766 341.953 18.034 326.277 18.034H286.741V55.6279ZM435.846 108.898C404.772 108.898 388.541 95.3027 388.541 71.5811C388.541 47.1659 405.604 32.8774 435.429 32.8774C467.474 32.8774 480.237 47.8595 480.514 72.8296H402.968C403.939 90.8636 417.257 98.2159 438.759 98.2159C454.018 98.2159 466.503 95.0253 476.769 88.3666V96.135C468.445 103.765 454.573 108.898 435.846 108.898ZM403.107 64.9224H465.532C464.006 47.0271 452.77 41.4782 435.429 41.4782C417.534 41.4782 405.188 48.2756 403.107 64.9224ZM540.219 108.898C509.145 108.898 493.608 96.2738 493.608 71.5811C493.608 47.0271 510.949 32.8774 543.271 32.8774C570.461 32.8774 582.391 41.4782 582.391 52.576C582.391 55.4892 581.143 58.125 579.617 59.7896H569.212C567.548 48.5531 561.028 42.4493 540.913 42.4493C519.966 42.4493 508.174 51.1888 508.174 69.7777C508.174 89.1989 519.966 97.661 543.549 97.661C559.779 97.661 572.264 93.2219 581.559 86.5632V94.3316C573.929 102.516 560.75 108.898 540.219 108.898ZM592.237 106.678V100.019C605.277 100.019 608.468 99.1869 608.468 89.0602V48.6918L592.237 44.5301V40.7846L622.479 30.6578V50.3565C628.166 39.9523 636.629 32.8774 647.31 32.8774C651.472 32.8774 655.634 34.1259 657.437 35.9293V47.8595C655.217 47.3046 650.917 46.611 645.646 46.611C634.686 46.611 627.334 50.6339 622.479 55.4892V89.0602C622.479 99.1869 626.918 100.019 645.368 100.019V106.678H592.237ZM710.831 108.898C692.242 108.898 679.896 100.852 679.896 81.9853V54.5182C679.896 43.2816 676.705 42.4493 663.804 42.4493V35.2357H693.907V78.656C693.907 93.2219 703.895 98.0772 718.322 98.0772C730.114 98.0772 739.408 95.3027 746.206 91.2797V54.5182C746.206 43.2816 742.46 42.4493 727.617 42.4493V35.2357H760.217V92.9444L776.447 96.6899V100.574L746.206 109.591V95.4414C738.021 103.626 726.229 108.898 710.831 108.898ZM783.935 106.678V100.019C796.975 100.019 800.165 99.1869 800.165 89.0602V48.6918L783.935 44.5301V40.7846L814.177 30.6578V89.0602C814.177 99.1869 817.367 100.019 830.407 100.019V106.678H783.935ZM806.685 18.1728C800.998 18.1728 796.975 14.566 796.975 9.15578C796.975 3.74558 800.998 6.07066e-05 806.685 6.07066e-05C812.373 6.07066e-05 816.674 3.74558 816.674 9.15578C816.674 14.566 812.373 18.1728 806.685 18.1728ZM870.878 108.898C858.532 108.898 850.625 103.071 850.625 89.7538V45.085H835.088V41.2008L861.307 19.0051H864.775V35.2357H893.629V45.085H864.775V84.7598C864.775 95.0253 869.63 98.0772 877.398 98.0772C882.947 98.0772 888.774 96.5512 894.461 93.0831V100.297C887.525 106.262 879.479 108.898 870.878 108.898ZM1031.68 106.678V100.019C1044.02 100.019 1047.07 99.1869 1047.07 89.0602V63.8126C1047.07 48.6918 1038.06 43.6978 1023.91 43.6978C1013.78 43.6978 1004.76 46.611 997.69 50.7726C998.383 53.4084 998.799 56.7377 998.799 60.3445V89.0602C998.799 99.1869 1001.85 100.019 1014.2 100.019V106.678H969.39V100.019C981.736 100.019 984.788 99.1869 984.788 89.0602V63.8126C984.788 48.6918 975.771 43.6978 961.76 43.6978C951.911 43.6978 942.617 46.4722 936.513 50.2178V89.0602C936.513 99.1869 939.565 100.019 951.911 100.019V106.678H906.271V100.019C919.311 100.019 922.502 99.1869 922.502 89.0602V48.6918L906.271 44.5301V40.7846L936.513 30.6578V46.1948C944.281 38.1489 955.657 32.8774 969.39 32.8774C982.569 32.8774 992.141 37.3165 996.441 47.3046C1004.9 38.565 1017.25 32.8774 1031.54 32.8774C1049.71 32.8774 1061.09 41.3395 1061.09 60.3445V89.0602C1061.09 99.1869 1064.28 100.019 1077.18 100.019V106.678H1031.68ZM1133.34 108.898C1102.27 108.898 1086.04 95.3027 1086.04 71.5811C1086.04 47.1659 1103.1 32.8774 1132.92 32.8774C1164.97 32.8774 1177.73 47.8595 1178.01 72.8296H1100.46C1101.43 90.8636 1114.75 98.2159 1136.25 98.2159C1151.51 98.2159 1164 95.0253 1174.26 88.3666V96.135C1165.94 103.765 1152.07 108.898 1133.34 108.898ZM1100.6 64.9224H1163.03C1161.5 47.0271 1150.26 41.4782 1132.92 41.4782C1115.03 41.4782 1102.68 48.2756 1100.6 64.9224ZM1188.19 106.678V100.019C1201.23 100.019 1204.42 99.1869 1204.42 89.0602V48.6918L1188.19 44.5301V40.7846L1218.43 30.6578V46.611C1227.04 38.1489 1239.38 32.8774 1254.92 32.8774C1274.62 32.8774 1287.38 41.3395 1287.38 60.0671V89.0602C1287.38 99.1869 1290.57 100.019 1303.47 100.019V106.678H1257.28V100.019C1270.18 100.019 1273.23 99.1869 1273.23 89.0602V63.5352C1273.23 48.6918 1263.1 43.8365 1247.15 43.8365C1235.77 43.8365 1225.51 46.611 1218.43 50.4952V89.0602C1218.43 99.1869 1221.63 100.019 1234.53 100.019V106.678H1188.19ZM1342.19 108.898C1329.85 108.898 1321.94 103.071 1321.94 89.7538V45.085H1306.4V41.2008L1332.62 19.0051H1336.09V35.2357H1364.95V45.085H1336.09V84.7598C1336.09 95.0253 1340.95 98.0772 1348.71 98.0772C1354.26 98.0772 1360.09 96.5512 1365.78 93.0831V100.297C1358.84 106.262 1350.8 108.898 1342.19 108.898Z" fill="#EAEAE5"/>
</svg>
