<svg preserveAspectRatio="none" width="100%" height="100%" overflow="visible" style="display: block;" viewBox="0 0 903 898" fill="none" xmlns="http://www.w3.org/2000/svg">
<path id="Union" d="M901.342 3.5166L900.22 2.5498L506.734 458.965L749.011 259.729L748.071 258.587L751.603 258L750.345 261.352L749.404 260.208L507.057 459.503L896.682 240.249L895.957 238.961L899.536 239L897.712 242.08L896.986 240.79L508.256 459.54L798.556 344.851L798.013 343.475L801.554 344L799.328 346.804L798.784 345.427L507.378 460.554L801.915 403.287L801.633 401.835L805.018 403L802.316 405.349L802.033 403.896L507.357 461.19H899.9V459.71L903 461.5L899.9 463.29V461.81H508.201L758.226 500.222L758.451 498.76L761.243 501L757.907 502.298L758.132 500.835L509.945 462.705L864.45 555.912L864.827 554.48L867.37 557L863.917 557.942L864.293 556.512L508.414 462.943L770.284 572.021L770.854 570.656L773.026 573.5L769.477 573.96L770.045 572.594L509.303 463.984L897.958 677.734L898.672 676.438L900.525 679.5L896.947 679.574L897.66 678.277L507.442 463.669L879.957 752.854L880.864 751.686L882.216 755L878.67 754.513L879.576 753.344L506.803 463.958L900.15 895.5L901.245 894.503L902.01 898L898.6 896.915L899.692 895.918L503.912 461.709L504.142 461.5L503.921 461.31H0V460.69H504V461.189L899.751 2.14551L898.631 1.17969L902.01 0L901.342 3.5166Z" fill="var(--fill-0, #4D453B)"/>
</svg>
