<svg preserveAspectRatio="none" width="100%" height="100%" overflow="visible" style="display: block;" viewBox="0 0 540.25 580" fill="none" xmlns="http://www.w3.org/2000/svg">
<g id="Group 36">
<rect id="Rectangle 21" x="93.25" y="130.015" width="367.5" height="367.5" stroke="var(--stroke-0, #4D453B)" stroke-width="0.5"/>
<path id="Vector 6" d="M276 130L274.557 132.5H277.443L276 130ZM275.75 497V497.25H276.25V497H276H275.75ZM276 132.25H275.75V497H276H276.25V132.25H276Z" fill="var(--stroke-0, #4D453B)"/>
<path id="Vector 8" d="M338 35.7652L336.045 37.8895L338.862 38.5201L338 35.7652ZM275.756 312.711L275.701 312.955L276.189 313.064L276.244 312.82L276 312.765L275.756 312.711ZM337.509 37.9608L337.265 37.9062L275.756 312.711L276 312.765L276.244 312.82L337.753 38.0155L337.509 37.9608Z" fill="var(--stroke-0, #4D453B)"/>
<path id="Vector 11" d="M214 580L215.972 577.891L213.159 577.239L214 580ZM276.243 312.822L276.3 312.578L275.813 312.465L275.756 312.709L276 312.765L276.243 312.822ZM214.509 577.808L214.753 577.865L276.243 312.822L276 312.765L275.756 312.709L214.265 577.752L214.509 577.808Z" fill="var(--stroke-0, #4D453B)"/>
<path id="Vector 24" d="M175.5 468L178.07 466.686L175.647 465.117L175.5 468ZM276.21 312.9L276.346 312.691L275.926 312.419L275.79 312.629L276 312.765L276.21 312.9ZM176.722 466.111L176.932 466.247L276.21 312.9L276 312.765L275.79 312.629L176.512 465.975L176.722 466.111Z" fill="var(--stroke-0, #4D453B)"/>
<path id="Vector 10" d="M309.5 118.765L307.652 120.983L310.497 121.474L309.5 118.765ZM275.754 312.723L275.712 312.969L276.204 313.054L276.247 312.808L276 312.765L275.754 312.723ZM309.117 120.982L308.871 120.94L275.754 312.723L276 312.765L276.247 312.808L309.363 121.025L309.117 120.982Z" fill="var(--stroke-0, #4D453B)"/>
<path id="Vector 12" d="M216.998 499.374L219.128 497.425L216.375 496.555L216.998 499.374ZM276.238 312.841L276.314 312.602L275.837 312.451L275.762 312.69L276 312.765L276.238 312.841ZM217.676 497.228L217.915 497.304L276.238 312.841L276 312.765L275.762 312.69L217.438 497.153L217.676 497.228Z" fill="var(--stroke-0, #4D453B)"/>
<path id="Vector 9" d="M347 176L344.567 177.554L347.129 178.884L347 176ZM275.778 312.65L275.662 312.872L276.106 313.103L276.221 312.881L276 312.766L275.778 312.65ZM345.963 177.997L345.741 177.882L275.778 312.65L276 312.766L276.221 312.881L346.185 178.112L345.963 177.997Z" fill="var(--stroke-0, #4D453B)"/>
<path id="Vector 19" d="M68.5 274.765L70.6991 276.635L71.2191 273.796L68.5 274.765ZM275.954 313.011L276.2 313.056L276.29 312.564L276.044 312.519L275.999 312.765L275.954 313.011ZM70.7132 275.171L70.6682 275.416L275.954 313.011L275.999 312.765L276.044 312.519L70.7582 274.925L70.7132 275.171Z" fill="var(--stroke-0, #4D453B)"/>
<path id="Vector 20" d="M260 461.765L261.702 459.434L258.832 459.125L260 461.765ZM276.248 312.792L276.274 312.543L275.777 312.49L275.75 312.739L275.999 312.765L276.248 312.792ZM260.24 459.528L260.489 459.555L276.248 312.792L275.999 312.765L275.75 312.739L259.992 459.501L260.24 459.528Z" fill="var(--stroke-0, #4D453B)"/>
<path id="Vector 21" d="M425.5 468.265L424.808 465.463L422.727 467.463L425.5 468.265ZM276.179 312.592L276.006 312.412L275.646 312.758L275.819 312.938L275.999 312.765L276.179 312.592ZM423.941 466.643L424.121 466.47L276.179 312.592L275.999 312.765L275.819 312.938L423.76 466.816L423.941 466.643Z" fill="var(--stroke-0, #4D453B)"/>
<path id="Vector 13" d="M465.5 378.765L463.614 376.58L462.664 379.306L465.5 378.765ZM276.082 312.529L275.846 312.447L275.681 312.919L275.917 313.002L276 312.765L276.082 312.529ZM463.375 378.025L463.457 377.789L276.082 312.529L276 312.765L275.917 313.002L463.293 378.261L463.375 378.025Z" fill="var(--stroke-0, #4D453B)"/>
<path id="Vector 22" d="M402.5 331.765L400.242 329.967L399.813 332.821L402.5 331.765ZM276.036 312.518L275.789 312.481L275.715 312.976L275.962 313.013L275.999 312.765L276.036 312.518ZM400.275 331.431L400.312 331.184L276.036 312.518L275.999 312.765L275.962 313.013L400.238 331.678L400.275 331.431Z" fill="var(--stroke-0, #4D453B)"/>
<path id="Vector 23" d="M207.5 276.265L209.028 278.715L210.385 276.167L207.5 276.265ZM275.881 312.986L276.102 313.104L276.337 312.662L276.117 312.545L275.999 312.765L275.881 312.986ZM209.486 277.323L209.368 277.544L275.881 312.986L275.999 312.765L276.117 312.545L209.603 277.103L209.486 277.323Z" fill="var(--stroke-0, #4D453B)"/>
<path id="Vector 14" d="M233 226.265L232.814 229.146L235.402 227.867L233 226.265ZM357.89 552.225C358.014 552.285 358.164 552.234 358.225 552.11L359.213 550.088C359.273 549.964 359.222 549.815 359.098 549.754C358.974 549.693 358.824 549.745 358.763 549.869L357.885 551.666L356.088 550.788C355.964 550.727 355.815 550.778 355.754 550.903C355.693 551.027 355.745 551.176 355.869 551.237L357.89 552.225ZM276.001 313.266L276.237 313.185L276.232 313.169L276.225 313.155L276.001 313.266ZM233.997 228.282L233.773 228.393L275.777 313.377L276.001 313.266L276.225 313.155L234.221 228.171L233.997 228.282ZM276.001 313.266L275.764 313.347L357.764 552.081L358 552L358.236 551.919L276.237 313.185L276.001 313.266Z" fill="var(--stroke-0, #4D453B)"/>
<path id="Vector 25" d="M233.003 226.263L232.816 229.144L235.404 227.865L233.003 226.263ZM363.935 467.241C364.068 467.277 364.205 467.199 364.242 467.066L364.832 464.894C364.868 464.761 364.79 464.624 364.656 464.588C364.523 464.551 364.386 464.63 364.35 464.763L363.825 466.693L361.895 466.168C361.762 466.132 361.624 466.211 361.588 466.344C361.552 466.477 361.63 466.614 361.764 466.651L363.935 467.241ZM276.003 313.264L275.779 313.375L275.783 313.382L275.786 313.388L276.003 313.264ZM234 228.28L233.775 228.391L275.779 313.375L276.003 313.264L276.227 313.153L234.224 228.17L234 228.28ZM276.003 313.264L275.786 313.388L363.783 467.124L364 467L364.217 466.876L276.22 313.14L276.003 313.264Z" fill="var(--stroke-0, #4D453B)"/>
<path id="Vector 15" d="M167 149L167.179 151.881L169.585 150.285L167 149ZM275.792 313.403L275.93 313.611L276.347 313.335L276.209 313.126L276 313.265L275.792 313.403ZM168.244 150.875L168.035 151.013L275.792 313.403L276 313.265L276.209 313.126L168.452 150.737L168.244 150.875Z" fill="var(--stroke-0, #4D453B)"/>
<path id="Vector 16" d="M0 38.2652L0.752196 41.0522L2.78974 39.0073L0 38.2652ZM276.324 313.942L276.501 314.119L276.854 313.765L276.676 313.588L276.5 313.765L276.324 313.942ZM1.59387 39.8533L1.41741 40.0304L276.324 313.942L276.5 313.765L276.676 313.588L1.77033 39.6762L1.59387 39.8533Z" fill="var(--stroke-0, #4D453B)"/>
<path id="Vector 7" d="M93.0002 312.515L92.7502 312.515L92.7498 313.015L92.9998 313.015L93 312.765L93.0002 312.515ZM461 313L461 312.75L93.0002 312.515L93 312.765L92.9998 313.015L461 313.25L461 313Z" fill="var(--stroke-0, #4D453B)"/>
<path id="Vector 17" d="M540.25 50.2659C540.25 50.1278 540.139 50.0155 540.001 50.0152L537.751 50.0088C537.613 50.0084 537.5 50.1201 537.5 50.2581C537.5 50.3962 537.611 50.5084 537.749 50.5088L539.749 50.5145L539.744 52.5144C539.743 52.6525 539.855 52.7648 539.993 52.7651C540.131 52.7655 540.243 52.6539 540.244 52.5158L540.25 50.2659ZM93.8237 493.588L93.6465 493.764L93.999 494.119L94.1763 493.942L94 493.765L93.8237 493.588ZM540 50.2652L539.824 50.0879L93.8237 493.588L94 493.765L94.1763 493.942L540.176 50.4424L540 50.2652Z" fill="var(--stroke-0, #4D453B)"/>
<path id="Vector 18" d="M525.999 205.894L523.132 205.559L524.276 208.209L525.999 205.894ZM88 394.894L90.8673 395.229L89.7236 392.578L88 394.894ZM523.934 206.785L523.834 206.555L89.9668 393.773L90.0659 394.003L90.1649 394.232L524.033 207.015L523.934 206.785Z" fill="var(--stroke-0, #4D453B)"/>
<circle id="Ellipse 6" cx="276" cy="312.765" r="3.75" fill="var(--fill-0, #FFEDD7)" stroke="var(--stroke-0, #4D453B)" stroke-width="0.5"/>
</g>
</svg>
