<svg preserveAspectRatio="none" width="100%" height="100%" overflow="visible" style="display: block;" viewBox="0 0 686.049 736.525" fill="none" xmlns="http://www.w3.org/2000/svg">
<g id="Group 36">
<rect id="Rectangle 21" x="118.415" y="165.103" width="466.677" height="466.677" stroke="var(--stroke-0, #4D453B)" stroke-width="0.634935"/>
<path id="Vector 6" d="M350.484 164.785L348.651 167.96H352.317L350.484 164.785ZM350.167 631.5V631.817H350.802V631.5H350.484H350.167ZM350.484 167.642H350.167V631.5H350.484H350.802V167.642H350.484Z" fill="var(--stroke-0, #4D453B)"/>
<path id="Vector 8" d="M429.216 45.4173L426.734 48.115L430.312 48.9157L429.216 45.4173ZM350.175 397.102L350.105 397.412L350.725 397.551L350.794 397.241L350.484 397.171L350.175 397.102ZM428.592 48.2055L428.282 48.1362L350.175 397.102L350.484 397.171L350.794 397.241L428.902 48.2749L428.592 48.2055Z" fill="var(--stroke-0, #4D453B)"/>
<path id="Vector 11" d="M271.752 736.525L274.255 733.847L270.684 733.018L271.752 736.525ZM350.793 397.243L350.865 396.934L350.246 396.791L350.174 397.1L350.484 397.172L350.793 397.243ZM272.398 733.742L272.707 733.814L350.793 397.243L350.484 397.172L350.174 397.1L272.089 733.67L272.398 733.742Z" fill="var(--stroke-0, #4D453B)"/>
<path id="Vector 24" d="M222.862 594.3L226.126 592.631L223.049 590.639L222.862 594.3ZM350.751 397.343L350.924 397.077L350.391 396.732L350.218 396.998L350.485 397.171L350.751 397.343ZM224.415 591.901L224.681 592.074L350.751 397.343L350.485 397.171L350.218 396.998L224.148 591.729L224.415 591.901Z" fill="var(--stroke-0, #4D453B)"/>
<path id="Vector 10" d="M393.025 150.817L390.679 153.633L394.291 154.257L393.025 150.817ZM350.172 397.117L350.118 397.43L350.744 397.538L350.798 397.226L350.485 397.172L350.172 397.117ZM392.539 153.632L392.226 153.578L350.172 397.117L350.485 397.172L350.798 397.226L392.852 153.686L392.539 153.632Z" fill="var(--stroke-0, #4D453B)"/>
<path id="Vector 12" d="M275.559 634.14L278.264 631.666L274.769 630.56L275.559 634.14ZM350.787 397.267L350.883 396.964L350.277 396.773L350.182 397.076L350.484 397.171L350.787 397.267ZM276.421 631.416L276.724 631.511L350.787 397.267L350.484 397.171L350.182 397.076L276.118 631.32L276.421 631.416Z" fill="var(--stroke-0, #4D453B)"/>
<path id="Vector 9" d="M440.645 223.498L437.555 225.471L440.809 227.16L440.645 223.498ZM350.202 397.026L350.056 397.308L350.619 397.6L350.765 397.318L350.484 397.172L350.202 397.026ZM439.329 226.033L439.047 225.887L350.202 397.026L350.484 397.172L350.765 397.318L439.61 226.18L439.329 226.033Z" fill="var(--stroke-0, #4D453B)"/>
<path id="Vector 19" d="M86.9861 348.916L89.7787 351.291L90.4391 347.685L86.9861 348.916ZM350.426 397.484L350.738 397.541L350.852 396.916L350.54 396.859L350.483 397.171L350.426 397.484ZM89.7966 349.431L89.7394 349.743L350.426 397.484L350.483 397.171L350.54 396.859L89.8538 349.119L89.7966 349.431Z" fill="var(--stroke-0, #4D453B)"/>
<path id="Vector 20" d="M330.166 586.382L332.328 583.421L328.683 583.03L330.166 586.382ZM350.799 397.205L350.833 396.89L350.201 396.822L350.167 397.138L350.483 397.171L350.799 397.205ZM330.471 583.541L330.787 583.575L350.799 397.205L350.483 397.171L350.167 397.138L330.156 583.507L330.471 583.541Z" fill="var(--stroke-0, #4D453B)"/>
<path id="Vector 21" d="M540.33 594.636L539.451 591.078L536.808 593.618L540.33 594.636ZM350.712 396.951L350.492 396.723L350.034 397.163L350.254 397.392L350.483 397.171L350.712 396.951ZM538.35 592.577L538.579 592.357L350.712 396.951L350.483 397.171L350.254 397.392L538.121 592.797L538.35 592.577Z" fill="var(--stroke-0, #4D453B)"/>
<path id="Vector 13" d="M591.125 480.983L588.73 478.208L587.524 481.67L591.125 480.983ZM350.588 396.872L350.288 396.768L350.079 397.367L350.379 397.472L350.484 397.172L350.588 396.872ZM588.427 480.043L588.531 479.743L350.588 396.872L350.484 397.172L350.379 397.472L588.322 480.343L588.427 480.043Z" fill="var(--stroke-0, #4D453B)"/>
<path id="Vector 22" d="M511.123 421.299L508.256 419.015L507.711 422.64L511.123 421.299ZM350.53 396.858L350.216 396.811L350.122 397.439L350.436 397.486L350.483 397.172L350.53 396.858ZM508.297 420.875L508.345 420.561L350.53 396.858L350.483 397.172L350.436 397.486L508.25 421.189L508.297 420.875Z" fill="var(--stroke-0, #4D453B)"/>
<path id="Vector 23" d="M263.498 350.821L265.438 353.932L267.162 350.697L263.498 350.821ZM350.334 397.452L350.614 397.601L350.913 397.041L350.632 396.892L350.483 397.172L350.334 397.452ZM266.02 352.165L265.87 352.445L350.334 397.452L350.483 397.172L350.632 396.892L266.169 351.885L266.02 352.165Z" fill="var(--stroke-0, #4D453B)"/>
<path id="Vector 14" d="M295.882 287.326L295.646 290.984L298.932 289.36L295.882 287.326ZM480.427 607.809C480.598 607.849 480.769 607.743 480.809 607.573L481.461 604.791C481.501 604.62 481.395 604.449 481.225 604.409C481.054 604.369 480.883 604.475 480.843 604.646L480.263 607.118L477.79 606.538C477.62 606.498 477.449 606.604 477.409 606.775C477.369 606.946 477.475 607.117 477.645 607.157L480.427 607.809ZM350.488 397.806L350.203 397.946L350.21 397.96L350.218 397.973L350.488 397.806ZM297.148 289.888L296.864 290.028L350.203 397.946L350.488 397.806L350.772 397.665L297.433 289.747L297.148 289.888ZM350.488 397.806L350.218 397.973L480.23 607.667L480.5 607.5L480.769 607.333L350.757 397.638L350.488 397.806Z" fill="var(--stroke-0, #4D453B)"/>
<path id="Vector 25" d="M295.883 287.326L295.646 290.984L298.933 289.36L295.883 287.326ZM476.875 712.292C477.037 712.361 477.223 712.286 477.292 712.124L478.411 709.496C478.48 709.334 478.405 709.148 478.244 709.079C478.082 709.01 477.896 709.086 477.827 709.247L476.832 711.584L474.496 710.588C474.334 710.52 474.148 710.595 474.079 710.756C474.01 710.917 474.085 711.104 474.247 711.173L476.875 712.292ZM350.488 397.806L350.783 397.687L350.778 397.676L350.773 397.665L350.488 397.806ZM297.149 289.887L296.864 290.028L350.203 397.946L350.488 397.806L350.773 397.665L297.433 289.747L297.149 289.887ZM350.488 397.806L350.194 397.924L476.705 712.119L477 712L477.294 711.881L350.783 397.687L350.488 397.806Z" fill="var(--stroke-0, #4D453B)"/>
<path id="Vector 15" d="M212.068 189.211L212.296 192.87L215.351 190.843L212.068 189.211ZM350.221 397.981L350.396 398.246L350.925 397.895L350.75 397.63L350.485 397.806L350.221 397.981ZM213.648 191.592L213.384 191.767L350.221 397.981L350.485 397.806L350.75 397.63L213.913 191.416L213.648 191.592Z" fill="var(--stroke-0, #4D453B)"/>
<path id="Vector 16" d="M0 48.592L0.955192 52.1312L3.5426 49.5344L0 48.592ZM350.895 398.666L351.12 398.89L351.568 398.441L351.343 398.216L351.119 398.441L350.895 398.666ZM2.02401 50.6087L1.79993 50.8336L350.895 398.666L351.119 398.441L351.343 398.216L2.24808 50.3838L2.02401 50.6087Z" fill="var(--stroke-0, #4D453B)"/>
<path id="Vector 7" d="M118.098 396.854H117.78V397.489H118.098V397.171V396.854ZM582.871 397.171V396.854H118.098V397.171V397.489H582.871V397.171Z" fill="var(--stroke-0, #4D453B)"/>
<path id="Vector 17" d="M686.048 62.8304C686.048 62.6551 685.906 62.513 685.73 62.5131L682.873 62.5142C682.698 62.5143 682.556 62.6565 682.556 62.8318C682.556 63.0071 682.698 63.1492 682.873 63.1491L685.413 63.1482L685.414 65.6879C685.414 65.8632 685.556 66.0053 685.732 66.0052C685.907 66.0052 686.049 65.863 686.049 65.6877L686.048 62.8304ZM118.276 630.276L118.051 630.5L118.5 630.949L118.725 630.725L118.5 630.5L118.276 630.276ZM685.73 62.8306L685.506 62.6062L118.276 630.276L118.5 630.5L118.725 630.725L685.955 63.055L685.73 62.8306Z" fill="var(--stroke-0, #4D453B)"/>
<path id="Vector 18" d="M667.951 261.458L664.31 261.033L665.762 264.399L667.951 261.458ZM111.749 501.465L115.39 501.89L113.937 498.524L111.749 501.465ZM665.328 262.59L665.202 262.299L114.246 500.041L114.372 500.333L114.498 500.624L665.454 262.882L665.328 262.59Z" fill="var(--stroke-0, #4D453B)"/>
<circle id="Ellipse 6" cx="350.484" cy="397.171" r="4.76201" fill="var(--fill-0, #FFEDD7)" stroke="var(--stroke-0, #4D453B)" stroke-width="0.634935"/>
</g>
</svg>
