<svg width="147" height="32" viewBox="0 0 147 32" fill="none" xmlns="http://www.w3.org/2000/svg">
<rect width="146.903" height="31.3744" fill="white"/>
<path d="M7 3.75586H139.902C141.694 3.75586 143.146 5.20849 143.146 7V24.374C143.146 26.1655 141.694 27.6182 139.902 27.6182H7C5.20861 27.618 3.75604 26.1654 3.75586 24.374V7C3.75598 5.20857 5.20857 3.75598 7 3.75586Z" stroke="black" stroke-width="0.512464"/>
<path d="M7.43084 13.6715L7.77726 10.7935H18.3432L18.6897 13.6715H17.9035C17.6237 12.006 17.1441 11.6863 15.6784 11.6863H13.7864V18.4016C13.7864 19.3742 13.9996 19.5075 15.9316 19.5075V20.187H10.1889V19.5075C12.1209 19.5075 12.3474 19.3742 12.3474 18.4016V11.6863H10.4554C8.97643 11.6863 8.51009 11.9927 8.23028 13.6715H7.43084ZM19.6489 20.187V19.5075C21.3943 19.5075 21.5942 19.3742 21.5942 18.4016V12.579C21.5942 11.6063 21.3943 11.4731 19.6489 11.4731V10.7935H27.0038C29.3755 10.7935 30.6945 11.7262 30.6945 13.4983C30.6945 15.2838 29.3222 16.403 26.5907 16.403H24.0991V15.5769H26.4442C28.2696 15.5769 29.1356 14.8174 29.1356 13.5516C29.1356 12.3525 28.3229 11.6729 26.724 11.6729H23.0332V18.4016C23.0332 19.3742 23.313 19.5075 25.7646 19.5075V20.187H19.6489ZM31.5875 20.187V19.5075C33.3329 19.5075 33.5328 19.3742 33.5328 18.4016V12.579C33.5328 11.6063 33.3329 11.4731 31.5875 11.4731V10.7935H39.1156C41.3673 10.7935 42.6331 11.6996 42.6331 13.2585C42.6331 14.8041 41.354 15.8167 39.1289 15.9366L38.6892 15.9899L41.7804 18.4016C42.8196 19.1877 43.3526 19.4675 43.9655 19.4675V20.187H41.9003C41.3273 19.8006 40.901 19.4675 40.448 19.0545L37.0104 16.1098H34.9718V18.4016C34.9718 19.3742 35.1716 19.5075 36.8771 19.5075V20.187H31.5875ZM34.9718 15.2838H38.4494C40.1548 15.2838 41.0609 14.6176 41.0609 13.3784C41.0609 12.2725 40.2747 11.6729 38.7691 11.6729H34.9718V15.2838ZM49.293 20.4002C46.3084 20.4002 44.7494 19.0944 44.7494 16.816C44.7494 14.471 46.3883 13.0986 49.253 13.0986C52.3308 13.0986 53.5567 14.5376 53.5833 16.9359H46.1351C46.2284 18.6681 47.5075 19.3742 49.5728 19.3742C51.0384 19.3742 52.2376 19.0678 53.2235 18.4282V19.1744C52.4241 19.9072 51.0917 20.4002 49.293 20.4002ZM46.1485 16.1765H52.1443C51.9977 14.4577 50.9185 13.9247 49.253 13.9247C47.5342 13.9247 46.3483 14.5776 46.1485 16.1765ZM59.3178 20.4002C56.3333 20.4002 54.841 19.1877 54.841 16.816C54.841 14.4577 56.5065 13.0986 59.611 13.0986C62.2225 13.0986 63.3684 13.9247 63.3684 14.9906C63.3684 15.2704 63.2484 15.5236 63.1019 15.6835H62.1026C61.9427 14.6042 61.3165 14.018 59.3845 14.018C57.3725 14.018 56.24 14.8574 56.24 16.6428C56.24 18.5082 57.3725 19.3209 59.6376 19.3209C61.1965 19.3209 62.3957 18.8946 63.2884 18.255V19.0012C62.5556 19.7873 61.2898 20.4002 59.3178 20.4002ZM64.3141 20.187V19.5475C65.5665 19.5475 65.873 19.4675 65.873 18.4949V14.6176L64.3141 14.2178V13.8581L67.2187 12.8854V14.7774C67.765 13.7781 68.5778 13.0986 69.6037 13.0986C70.0034 13.0986 70.4032 13.2185 70.5764 13.3917V14.5376C70.3632 14.4843 69.9501 14.4177 69.4438 14.4177C68.3912 14.4177 67.685 14.8041 67.2187 15.2704V18.4949C67.2187 19.4675 67.6451 19.5475 69.4172 19.5475V20.187H64.3141ZM75.7048 20.4002C73.9194 20.4002 72.7335 19.6274 72.7335 17.8153V15.1772C72.7335 14.0979 72.4271 14.018 71.1879 14.018V13.3251H74.0792V17.4956C74.0792 18.8946 75.0386 19.3609 76.4243 19.3609C77.5568 19.3609 78.4495 19.0944 79.1024 18.708V15.1772C79.1024 14.0979 78.7427 14.018 77.317 14.018V13.3251H80.4481V18.8679L82.0071 19.2277V19.6008L79.1024 20.4668V19.1078C78.3163 19.8939 77.1838 20.4002 75.7048 20.4002ZM82.7262 20.187V19.5475C83.9787 19.5475 84.2852 19.4675 84.2852 18.4949V14.6176L82.7262 14.2178V13.8581L85.6309 12.8854V18.4949C85.6309 19.4675 85.9373 19.5475 87.1898 19.5475V20.187H82.7262ZM84.9114 11.6863C84.3651 11.6863 83.9787 11.3398 83.9787 10.8202C83.9787 10.3006 84.3651 9.94081 84.9114 9.94081C85.4577 9.94081 85.8707 10.3006 85.8707 10.8202C85.8707 11.3398 85.4577 11.6863 84.9114 11.6863ZM91.077 20.4002C89.8912 20.4002 89.1317 19.8406 89.1317 18.5615V14.2711H87.6394V13.8981L90.1576 11.7662H90.4907V13.3251H93.2621V14.2711H90.4907V18.0818C90.4907 19.0678 90.9571 19.3609 91.7032 19.3609C92.2362 19.3609 92.7958 19.2144 93.3421 18.8813V19.5741C92.6759 20.147 91.9031 20.4002 91.077 20.4002ZM106.521 20.187V19.5475C107.707 19.5475 108 19.4675 108 18.4949V16.0699C108 14.6176 107.134 14.1379 105.775 14.1379C104.803 14.1379 103.936 14.4177 103.257 14.8174C103.324 15.0706 103.364 15.3904 103.364 15.7368V18.4949C103.364 19.4675 103.657 19.5475 104.843 19.5475V20.187H100.539V19.5475C101.725 19.5475 102.018 19.4675 102.018 18.4949V16.0699C102.018 14.6176 101.152 14.1379 99.806 14.1379C98.86 14.1379 97.9673 14.4044 97.381 14.7641V18.4949C97.381 19.4675 97.6742 19.5475 98.86 19.5475V20.187H94.4764V19.5475C95.7289 19.5475 96.0353 19.4675 96.0353 18.4949V14.6176L94.4764 14.2178V13.8581L97.381 12.8854V14.3777C98.1272 13.6049 99.2198 13.0986 100.539 13.0986C101.805 13.0986 102.724 13.525 103.137 14.4843C103.95 13.6449 105.136 13.0986 106.508 13.0986C108.253 13.0986 109.346 13.9114 109.346 15.7368V18.4949C109.346 19.4675 109.653 19.5475 110.892 19.5475V20.187H106.521ZM116.286 20.4002C113.301 20.4002 111.742 19.0944 111.742 16.816C111.742 14.471 113.381 13.0986 116.246 13.0986C119.324 13.0986 120.55 14.5376 120.576 16.9359H113.128C113.221 18.6681 114.5 19.3742 116.566 19.3742C118.031 19.3742 119.231 19.0678 120.217 18.4282V19.1744C119.417 19.9072 118.085 20.4002 116.286 20.4002ZM113.141 16.1765H119.137C118.991 14.4577 117.911 13.9247 116.246 13.9247C114.527 13.9247 113.341 14.5776 113.141 16.1765ZM121.554 20.187V19.5475C122.807 19.5475 123.113 19.4675 123.113 18.4949V14.6176L121.554 14.2178V13.8581L124.459 12.8854V14.4177C125.285 13.6049 126.471 13.0986 127.963 13.0986C129.855 13.0986 131.081 13.9114 131.081 15.7101V18.4949C131.081 19.4675 131.388 19.5475 132.627 19.5475V20.187H128.19V19.5475C129.429 19.5475 129.722 19.4675 129.722 18.4949V16.0432C129.722 14.6176 128.749 14.1512 127.217 14.1512C126.125 14.1512 125.139 14.4177 124.459 14.7908V18.4949C124.459 19.4675 124.766 19.5475 126.005 19.5475V20.187H121.554ZM136.346 20.4002C135.16 20.4002 134.401 19.8406 134.401 18.5615V14.2711H132.908V13.8981L135.427 11.7662H135.76V13.3251H138.531V14.2711H135.76V18.0818C135.76 19.0678 136.226 19.3609 136.972 19.3609C137.505 19.3609 138.065 19.2144 138.611 18.8813V19.5741C137.945 20.147 137.172 20.4002 136.346 20.4002Z" fill="black"/>
</svg>
