<svg preserveAspectRatio="none" width="100%" height="100%" overflow="visible" style="display: block;" viewBox="0 0 16 16" fill="none" xmlns="http://www.w3.org/2000/svg">
<g id="Group">
<path id="Vector" fill-rule="evenodd" clip-rule="evenodd" d="M1.77778 16H14.2222C15.2041 16 16 15.2041 16 14.2222V1.77778C16 0.795938 15.2041 0 14.2222 0H1.77778C0.795938 0 0 0.795938 0 1.77778V14.2222C0 15.2041 0.795938 16 1.77778 16Z" fill="var(--fill-0, #4D453B)"/>
<path id="Vector_2" fill-rule="evenodd" clip-rule="evenodd" d="M13.7778 13.7778H11.4035V9.73385C11.4035 8.6251 10.9822 8.0055 10.1046 8.0055C9.14996 8.0055 8.65117 8.65029 8.65117 9.73385V13.7778H6.36301V6.07412H8.65117V7.11181C8.65117 7.11181 9.33916 5.83876 10.9739 5.83876C12.608 5.83876 13.7778 6.83659 13.7778 8.90031V13.7778ZM3.63323 5.06538C2.85383 5.06538 2.22227 4.42886 2.22227 3.64382C2.22227 2.85879 2.85383 2.22227 3.63323 2.22227C4.41263 2.22227 5.04382 2.85879 5.04382 3.64382C5.04382 4.42886 4.41263 5.06538 3.63323 5.06538ZM2.45172 13.7778H4.83769V6.07412H2.45172V13.7778Z" fill="var(--fill-0, white)"/>
</g>
</svg>
